<?xml version="1.0" encoding="UTF-8"?>
<svg width="448px" height="95px" viewBox="0 0 448 95" version="1.1" xmlns="http://www.w3.org/2000/svg" xmlns:xlink="http://www.w3.org/1999/xlink">
    <!-- Generator: Sketch 43.2 (39069) - http://www.bohemiancoding.com/sketch -->
    <title>babies-r-us</title>
    <desc>Created with Sketch.</desc>
    <defs></defs>
    <g id="Page-1" stroke="none" stroke-width="1" fill="none" fill-rule="evenodd">
        <g id="babies-r-us" fill-rule="nonzero" fill="#604C89">
            <path d="M231.167,25.896 C225.956,29.452 222.687,33.974 222.71,41.062 C222.802,49.719 237.342,56.184 237.342,56.184 C245.192,60.098 241.571,65.646 236.045,64.639 C231.167,63.72 227.297,61.462 224.1,59.183 C223.002,58.354 221.056,58.934 220.99,61.262 C220.99,62.56 220.968,66.028 220.968,66.028 C220.968,67.057 221.684,68.131 222.688,69.091 C225.217,71.552 231.191,76.362 243.827,76.362 C253.066,76.362 263.403,72.536 264.609,60.77 C265.28,54.843 261.545,47.685 249.243,42.449 C244.926,40.617 243.001,38.603 244.276,35.761 C245.394,33.1 249.801,32.651 253.74,34.486 C258.257,36.544 262.128,29.43 258.1,26.723 C248.86,20.684 237.879,21.311 231.167,25.896" id="Shape"></path>
            <path d="M409.162,25.896 C403.972,29.452 400.706,33.974 400.726,41.062 C400.816,49.719 415.357,56.184 415.357,56.184 C423.164,60.098 419.585,65.646 414.016,64.639 C409.137,63.72 405.312,61.462 402.091,59.183 C400.995,58.354 399.028,58.934 399.004,61.262 L399.004,66.028 C399.004,67.057 399.676,68.131 400.705,69.091 C403.232,71.552 409.184,76.362 421.845,76.362 C431.105,76.362 441.35,72.536 442.625,60.77 C443.318,54.843 439.537,47.685 427.213,42.449 C422.939,40.617 421.014,38.603 422.247,35.761 C423.41,33.1 427.772,32.651 431.731,34.486 C436.251,36.544 440.164,29.43 436.118,26.723 C426.88,20.684 415.871,21.311 409.162,25.896" id="Shape"></path>
            <path d="M167.594,75.848 C160.658,76.319 156.946,74.64 156.497,70.883 C155.11,58.869 156.184,45.202 156.922,41.265 C157.147,39.7 157.548,34.219 166.229,34.511 C170.928,34.666 173.522,35.605 174.774,36.971 C175.534,37.798 175.781,38.96 175.668,40.592 C175.245,45 175.042,60.122 176.809,67.951 C177.213,69.809 176.943,71.397 176.025,72.603 C175.088,73.901 172.829,75.491 167.594,75.848" id="Shape"></path>
            <path d="M158.936,25.136 C158.936,23.615 159.584,22.116 160.794,20.908 C162.447,19.254 164.91,18.313 167.525,18.313 C170.119,18.313 172.626,19.254 174.236,20.908 C175.422,22.116 176.114,23.615 176.114,25.136 C176.114,28.94 172.245,31.981 167.525,31.981 C164.91,31.981 162.447,31.041 160.794,29.409 C159.584,28.155 158.936,26.723 158.936,25.136" id="Shape"></path>
            <path d="M218.058,26.881 C217.501,25.494 216.158,23.547 211.549,22.944 C206.742,22.385 194.951,23.079 189.426,24.577 C183.274,26.278 182.557,30.706 181.978,34.218 C181.306,38.336 180.165,53.568 182.336,66.229 C183.006,70.097 184.997,72.268 189.359,73.878 C194.594,75.847 209.894,76.474 213.384,74.861 C215.689,73.947 216.046,72.267 216.226,71.911 C216.94,70.5 217.925,66.854 217.925,63.702 C217.925,62.962 217.678,62.401 217.187,62.045 C216.336,61.352 214.928,61.352 214.232,61.508 C212.107,61.955 207.59,61.979 202.758,61.955 C202.758,61.955 201.349,62 200.699,61.219 C200.364,60.815 200.118,60.166 200.163,59.562 L200.341,57.393 C200.431,56.275 201.37,55.399 202.534,55.447 C206.471,55.47 214.5,54.754 214.927,54.686 C215.531,54.641 216.582,53.679 216.781,52.628 C216.983,51.82 217.185,49.384 217.228,47.394 C217.252,45.625 215.016,45.247 214.948,45.247 C214.276,45.136 208.303,44.196 203.808,43.769 C203.182,43.68 202.644,43.365 202.308,42.898 C201.906,42.429 201.773,41.8 201.883,41.197 C201.973,40.658 202.063,40.056 202.173,39.341 C202.352,38.289 203.291,37.439 204.456,37.528 C207.05,37.664 211.861,37.911 214.88,38.157 C218.684,38.447 219.308,36.947 219.668,35.047 C220.004,33.234 218.687,28.38 218.058,26.881" id="Shape"></path>
            <path d="M349.703,57.35 C349.861,40.573 357.264,27.554 358.114,26.054 C359.816,23.189 361.871,23.258 363.862,23.929 C366.235,24.713 370.55,25.986 372.118,26.724 C373.55,27.417 374.241,29.431 373.347,31.625 C372.294,34.129 367.441,43.277 366.838,51.847 C366.499,57.66 372.498,64.013 379.654,54.058 C386.881,44.127 385.693,30.125 385.693,28.29 C385.693,26.433 386.342,24.577 388.781,24.263 C391.219,23.929 393.927,23.771 394.778,23.771 C396.88,23.771 398.153,24.913 398.357,27.125 C399.094,35.604 398.132,60.927 381.063,72.134 C366.145,81.865 349.547,73.477 349.703,57.35" id="Shape"></path>
            <path d="M136.41,61.779 C134.038,64.26 128.692,64.35 122.943,64.148 C122.943,64.148 122.495,64.192 122.114,64.125 C121.846,64.059 121.868,63.815 121.868,63.815 L121.868,62.986 L122.293,53.949 C122.293,53.949 122.337,53.478 122.337,53.232 C122.337,53.031 122.584,53.009 122.584,53.009 L123.255,52.918 C123.59,52.851 132.382,51.733 136.029,54.641 C136.968,55.402 137.571,56.43 137.685,57.66 C137.864,59.318 137.415,60.748 136.41,61.779 M121.847,33.881 C121.847,33.727 121.869,33.614 121.959,33.57 C122.093,33.479 122.652,33.412 122.743,33.391 C123.098,33.302 131.289,31.714 134.553,34.016 C135.404,34.599 135.895,35.403 136.031,36.321 C136.234,37.572 135.853,38.802 134.912,39.834 C132.83,42.159 128.47,43.435 123.168,43.254 C123.168,43.254 122.631,43.232 122.384,43.232 C122.115,43.232 122.115,42.944 122.115,42.944 L122.094,42.183 L121.847,34.484 C121.847,34.484 121.802,34.15 121.847,33.881 M153.322,58.936 C152.985,50.773 145.783,48.176 141.555,46.679 C141.063,46.524 140.347,46.366 139.921,46.186 C139.406,46.007 139.429,45.851 139.942,45.628 C140.412,45.358 141.33,44.91 141.33,44.91 C143.343,43.972 149.83,40.123 148.689,32.63 C147.325,23.683 135.804,22.005 132.293,21.67 L132.225,21.67 C128.446,21.31 118.311,21.423 111.154,23.95 C107.687,25.158 107.039,27.867 106.591,29.854 L106.411,30.459 C103.458,42.002 104.422,61.665 108.402,71.709 C108.425,71.731 108.425,71.775 108.425,71.799 L108.469,71.844 C108.491,71.911 108.961,73.654 111.31,74.237 C132.964,79.294 143.455,74.057 147.794,70.457 C151.554,67.346 153.545,63.254 153.322,58.936" id="Shape"></path>
            <path d="M32.435,61.779 C30.065,64.26 24.739,64.35 18.991,64.148 C18.991,64.148 18.545,64.192 18.165,64.125 C17.896,64.059 17.896,63.815 17.896,63.815 L17.917,62.986 L18.343,53.949 C18.343,53.949 18.366,53.478 18.366,53.232 C18.366,53.031 18.611,53.009 18.611,53.009 L19.283,52.918 C19.663,52.851 28.387,51.733 32.033,54.641 C33.04,55.402 33.6,56.43 33.712,57.66 C33.868,59.318 33.419,60.748 32.435,61.779 M17.896,33.881 C17.896,33.727 17.917,33.614 17.984,33.57 C18.165,33.479 18.68,33.412 18.79,33.391 C19.126,33.302 27.357,31.714 30.603,34.016 C31.431,34.599 31.944,35.403 32.057,36.321 C32.281,37.572 31.877,38.802 30.939,39.834 C28.88,42.159 24.495,43.435 19.195,43.254 C19.195,43.254 18.681,43.232 18.433,43.232 C18.165,43.232 18.165,42.944 18.165,42.944 C18.165,42.944 17.83,34.15 17.896,33.881 M49.326,58.936 C49.012,50.773 41.81,48.176 37.604,46.679 C37.134,46.524 36.374,46.366 35.947,46.186 C35.435,46.007 35.478,45.851 35.97,45.628 C36.44,45.358 37.403,44.91 37.403,44.91 C39.415,43.972 45.835,40.123 44.695,32.63 C43.376,23.683 31.833,22.005 28.321,21.67 L28.255,21.67 C24.475,21.31 14.362,21.423 7.226,23.95 C3.714,25.158 3.089,27.867 2.596,29.854 L2.439,30.459 C-0.446,42.002 0.471,61.665 4.452,71.709 C4.474,71.731 4.498,71.775 4.498,71.799 L4.498,71.844 C4.521,71.911 4.967,73.654 7.361,74.237 C29.037,79.294 39.529,74.057 43.824,70.457 C47.603,67.346 49.573,63.254 49.326,58.936" id="Shape"></path>
            <path d="M83.484,58.625 C80.128,59.073 75.207,59.139 71.739,58.849 C71.359,58.824 71.426,58.535 71.494,58.266 C71.628,58.041 77.198,45.315 77.355,44.956 C77.556,44.484 77.69,44.463 77.847,44.956 C77.935,45.136 83.796,58.041 83.776,58.041 C83.84,58.175 83.997,58.579 83.484,58.625 M103.84,65.468 C103.749,65.221 103.683,64.996 103.639,64.753 C99.857,50.349 91.066,32.631 86.323,25.226 C84.669,22.632 83.729,22.161 76.749,22.519 C70.241,22.877 68.181,25.539 66.124,29.053 C57.333,42.876 49.953,67.862 49.907,68.131 C49.033,71.152 49.191,72.025 57.669,74.798 C61.315,76.027 63.732,76.25 65.028,75.491 C65.856,74.974 66.169,74.057 66.369,72.829 C66.526,72.224 66.862,71.041 67.443,69.339 L67.6,68.891 C67.6,68.891 67.688,68.691 67.892,68.733 C68.138,68.755 68.361,68.823 68.361,68.823 C73.06,69.585 80.038,69.025 85.788,67.416 C85.788,67.416 86.056,67.348 86.303,67.281 C86.525,67.193 86.637,67.458 86.637,67.458 L86.794,67.952 C87.735,70.996 88.427,73.253 88.672,74.171 C88.873,75.042 89.322,75.559 89.991,75.828 C91.178,76.275 93.727,76.118 99.096,72.674 C104.847,68.935 104.376,67.372 103.84,65.468" id="Shape"></path>
            <path d="M443.834,26.477 L444.235,26.477 C444.751,26.477 445.221,26.277 445.221,25.83 C445.221,25.516 444.929,25.159 444.235,25.159 C444.058,25.159 443.946,25.181 443.834,25.181 L443.834,26.477 Z M443.834,28.603 L443.23,28.603 L443.23,24.756 C443.544,24.734 443.834,24.666 444.303,24.666 C444.887,24.666 445.243,24.823 445.491,24.98 C445.714,25.159 445.871,25.426 445.871,25.74 C445.871,26.277 445.512,26.59 445.11,26.701 L445.11,26.724 C445.422,26.79 445.669,27.103 445.714,27.641 C445.804,28.266 445.916,28.467 445.984,28.602 L445.312,28.602 C445.245,28.467 445.177,28.11 445.044,27.618 C445,27.126 444.708,26.969 444.236,26.969 L443.835,26.969 L443.835,28.603 L443.834,28.603 Z M444.461,23.729 C442.961,23.729 441.732,25.002 441.732,26.612 C441.732,28.245 442.961,29.499 444.461,29.499 C445.982,29.499 447.189,28.245 447.189,26.612 C447.188,25.001 445.982,23.729 444.461,23.729 L444.461,23.729 Z M444.461,23.19 C446.361,23.19 447.839,24.712 447.839,26.612 C447.839,28.536 446.361,30.036 444.461,30.036 C442.626,30.036 441.061,28.536 441.061,26.612 C441.061,24.712 442.626,23.19 444.461,23.19 L444.461,23.19 Z" id="Shape"></path>
            <path d="M325.186,32.138 C325.186,32.138 318.006,37.059 317.848,37.216 C317.246,37.665 316.396,38.245 316.284,40.506 C316.217,41.466 315.971,48.176 315.971,49.004 C315.971,49.922 315.522,52.473 312.615,49.9 C312.615,49.9 307.716,45.629 307,44.978 C306.822,44.845 305.166,42.944 302.527,44.062 L294.9,47.105 C294.9,47.105 290.27,49.004 291.967,44.866 C293.624,40.82 294.764,37.484 295.122,36.411 C295.501,35.293 295.346,33.683 294.43,32.587 C294.027,32.094 290.358,27.218 289.487,26.009 C289.487,26.009 286.444,22.407 291.498,22.698 C291.498,22.698 300.111,22.876 300.246,22.9 C300.403,22.9 302.014,22.989 303.131,21.199 C304.564,18.984 308.725,13.774 307.852,14.869 C308.545,13.974 310.267,11.669 311.363,15.452 C311.363,15.452 312.953,20.416 313.736,22.497 C314.205,23.927 314.584,24.868 317.113,25.695 L324.987,28.559 C324.985,28.559 328.699,29.677 325.186,32.138 M340.017,10.126 C319.727,-0.342 299.686,-1.439 287.248,2.297 C264.209,9.209 257.093,38.491 278.39,52.83 C279.688,53.68 278.904,55.493 277.272,58.399 C275.258,62.045 271.568,69.181 265.013,74.349 C261.052,77.457 258.501,78.733 261.725,82.558 C261.725,82.558 268.949,90.657 274.275,92.983 C280.716,95.823 282.326,95.33 287.113,90.835 C290.089,87.997 296.108,80.345 303.288,68.064 C307,61.732 311.969,61.599 311.295,72.091 C311.295,72.091 310.312,82.154 310.066,84.238 C309.238,90.253 309.884,92.335 315.277,92.401 C315.277,92.401 326.842,91.774 330.845,91.193 C336.484,90.432 336.192,89.515 337.669,85.042 C345.543,61.265 346.236,20.439 346.236,20.439 C346.594,14.958 344.849,12.61 340.017,10.126" id="Shape"></path>
        </g>
    </g>
</svg>